<svg width="234" height="51" viewBox="0 0 234 51" fill="none" xmlns="http://www.w3.org/2000/svg">
    <ellipse cx="25" cy="42.5" rx="4" ry="4.5" fill="#6D28D9" />
    <ellipse cx="35" cy="4.5" rx="4" ry="4.5" fill="#6D28D9" />
    <path d="M4 23.5L26 5M14.0472 33L26 23.5" stroke="#6D28D9" stroke-width="7" stroke-linecap="round" />
    <path d="M35.6404 15.1523L35.8087 44.7837" stroke="#6D28D9" stroke-width="6" stroke-linecap="round" />
    <path d="M68.0869 47H64.3809L54.874 31.8682V47H51.168V25.6719H54.874L64.4102 40.8623V25.6719H68.0869V47ZM84.0314 42.3564L89.4514 25.6719H93.5236L85.8479 47H82.259L74.6125 25.6719H78.6701L84.0314 42.3564ZM112.456 37.4785H103.697V44.041H113.936V47H99.9906V25.6719H113.833V28.6602H103.697V34.5488H112.456V37.4785ZM132.151 41.5068C132.151 40.5693 131.819 39.8467 131.155 39.3389C130.501 38.8311 129.314 38.3184 127.595 37.8008C125.877 37.2832 124.509 36.707 123.494 36.0723C121.55 34.8516 120.579 33.2598 120.579 31.2969C120.579 29.5781 121.277 28.1621 122.673 27.0488C124.08 25.9355 125.901 25.3789 128.137 25.3789C129.622 25.3789 130.945 25.6523 132.107 26.1992C133.269 26.7461 134.182 27.5273 134.846 28.543C135.51 29.5488 135.842 30.667 135.842 31.8975H132.151C132.151 30.7842 131.799 29.915 131.096 29.29C130.403 28.6553 129.407 28.3379 128.108 28.3379C126.897 28.3379 125.955 28.5967 125.281 29.1143C124.617 29.6318 124.285 30.3545 124.285 31.2822C124.285 32.0635 124.646 32.7178 125.369 33.2451C126.091 33.7627 127.283 34.2705 128.943 34.7686C130.603 35.2568 131.936 35.8184 132.942 36.4531C133.948 37.0781 134.685 37.8008 135.154 38.6211C135.623 39.4316 135.857 40.3838 135.857 41.4775C135.857 43.2549 135.173 44.6709 133.806 45.7256C132.449 46.7705 130.603 47.293 128.269 47.293C126.726 47.293 125.305 47.0098 124.006 46.4434C122.717 45.8672 121.712 45.0762 120.989 44.0703C120.276 43.0645 119.92 41.8926 119.92 40.5547H123.626C123.626 41.7656 124.026 42.7031 124.827 43.3672C125.628 44.0312 126.775 44.3633 128.269 44.3633C129.558 44.3633 130.525 44.1045 131.17 43.5869C131.824 43.0596 132.151 42.3662 132.151 41.5068ZM158.569 28.6602H151.919V47H148.242V28.6602H141.65V25.6719H158.569V28.6602Z" fill="#F3F4F6" />
</svg>