<svg width="53" height="53" viewBox="0 0 53 53" fill="none" xmlns="http://www.w3.org/2000/svg">
<g filter="url(#filter0_d)">
<rect x="4" width="45" height="45" rx="10" fill="white"/>
<rect x="11.5" y="6.5" width="29.5128" height="22.5385" rx="4.5" stroke="#686868"/>
<path d="M20.1577 17.7734C20.1577 17.4414 20.0522 17.168 19.8413 16.9531C19.6304 16.7344 19.2788 16.5391 18.7866 16.3672C18.2944 16.1914 17.9116 16.0293 17.6382 15.8809C16.728 15.3926 16.2729 14.6699 16.2729 13.7129C16.2729 13.0645 16.4702 12.5312 16.8647 12.1133C17.2593 11.6953 17.7944 11.4473 18.4702 11.3691V10.0918H19.4077V11.3809C20.0874 11.4785 20.6128 11.7676 20.9839 12.248C21.355 12.7246 21.5405 13.3457 21.5405 14.1113H20.1226C20.1226 13.6191 20.0112 13.2324 19.7886 12.9512C19.5698 12.666 19.271 12.5234 18.8921 12.5234C18.5171 12.5234 18.2241 12.625 18.0132 12.8281C17.8022 13.0312 17.6968 13.3223 17.6968 13.7012C17.6968 14.041 17.8003 14.3145 18.0073 14.5215C18.2183 14.7246 18.5737 14.918 19.0737 15.1016C19.5737 15.2852 19.9663 15.4551 20.2515 15.6113C20.5366 15.7676 20.7769 15.9473 20.9722 16.1504C21.1675 16.3496 21.3179 16.5801 21.4233 16.8418C21.5288 17.1035 21.5815 17.4102 21.5815 17.7617C21.5815 18.4219 21.3784 18.957 20.9722 19.3672C20.5698 19.7773 20.0073 20.0195 19.2847 20.0938V21.2363H18.353V20.0996C17.5796 20.0137 16.9839 19.7363 16.5659 19.2676C16.1519 18.7988 15.9448 18.1777 15.9448 17.4043H17.3687C17.3687 17.8965 17.4917 18.2773 17.7378 18.5469C17.9878 18.8164 18.3394 18.9512 18.7925 18.9512C19.2378 18.9512 19.5757 18.8438 19.8062 18.6289C20.0405 18.4141 20.1577 18.1289 20.1577 17.7734Z" fill="#6D28D9"/>
<path d="M15.3589 24.3077H24.5127M17.5384 26.9231H21.8973M27.9999 12.9744H37.5897M29.3076 15.5897H32.3589M34.9743 15.5897H37.5897M27.9999 17.7692H37.5897" stroke="#686868" stroke-linecap="round"/>
<circle cx="34.5384" cy="27.795" r="4.73077" fill="white" stroke="#6D28D9"/>
<path d="M32 32V40L34.6667 37.4737L37 40V32" stroke="#6D28D9" stroke-linecap="round"/>
</g>
<defs>
<filter id="filter0_d" x="0" y="0" width="53" height="53" filterUnits="userSpaceOnUse" color-interpolation-filters="sRGB">
<feFlood flood-opacity="0" result="BackgroundImageFix"/>
<feColorMatrix in="SourceAlpha" type="matrix" values="0 0 0 0 0 0 0 0 0 0 0 0 0 0 0 0 0 0 127 0" result="hardAlpha"/>
<feOffset dy="4"/>
<feGaussianBlur stdDeviation="2"/>
<feComposite in2="hardAlpha" operator="out"/>
<feColorMatrix type="matrix" values="0 0 0 0 0 0 0 0 0 0 0 0 0 0 0 0 0 0 0.25 0"/>
<feBlend mode="normal" in2="BackgroundImageFix" result="effect1_dropShadow"/>
<feBlend mode="normal" in="SourceGraphic" in2="effect1_dropShadow" result="shape"/>
</filter>
</defs>
</svg>
