<svg width="53" height="53" viewBox="0 0 53 53" fill="none" xmlns="http://www.w3.org/2000/svg">
<g filter="url(#filter0_d)">
<rect x="4" width="45" height="45" rx="10" fill="white"/>
<path d="M15.5 21C15.6667 25.5 15.9 34.7 15.5 35.5H38V21L26.5 11.5L15.5 21Z" fill="#6D28D9"/>
<path d="M12.5 20L26.5 8.5L40.5 20" stroke="#6D28D9"/>
<path d="M27.9985 28.2168C27.9985 27.8018 27.8667 27.46 27.603 27.1914C27.3394 26.918 26.8999 26.6738 26.2847 26.459C25.6694 26.2393 25.1909 26.0366 24.8491 25.8511C23.7114 25.2407 23.1426 24.3374 23.1426 23.1411C23.1426 22.3306 23.3892 21.6641 23.8823 21.1416C24.3755 20.6191 25.0444 20.3091 25.8892 20.2114V18.6147H27.061V20.2261C27.9106 20.3481 28.5674 20.7095 29.0312 21.3101C29.4951 21.9058 29.7271 22.6821 29.7271 23.6392H27.9546C27.9546 23.0239 27.8154 22.5405 27.5371 22.189C27.2637 21.8325 26.8901 21.6543 26.4165 21.6543C25.9478 21.6543 25.5815 21.7812 25.3179 22.0352C25.0542 22.2891 24.9224 22.6528 24.9224 23.1265C24.9224 23.5513 25.0518 23.8931 25.3105 24.1519C25.5742 24.4058 26.0186 24.6475 26.6436 24.877C27.2686 25.1064 27.7593 25.3188 28.1157 25.5142C28.4722 25.7095 28.7725 25.9341 29.0166 26.188C29.2607 26.437 29.4487 26.7251 29.5806 27.0522C29.7124 27.3794 29.7783 27.7627 29.7783 28.2021C29.7783 29.0273 29.5244 29.6963 29.0166 30.209C28.5137 30.7217 27.8105 31.0244 26.9072 31.1172V32.5454H25.7427V31.1245C24.7759 31.0171 24.0312 30.6704 23.5088 30.0845C22.9912 29.4985 22.7324 28.7222 22.7324 27.7554H24.5122C24.5122 28.3706 24.666 28.8467 24.9736 29.1836C25.2861 29.5205 25.7256 29.689 26.292 29.689C26.8486 29.689 27.271 29.5547 27.5591 29.2861C27.8521 29.0176 27.9985 28.6611 27.9985 28.2168Z" fill="white"/>
</g>
<defs>
<filter id="filter0_d" x="0" y="0" width="53" height="53" filterUnits="userSpaceOnUse" color-interpolation-filters="sRGB">
<feFlood flood-opacity="0" result="BackgroundImageFix"/>
<feColorMatrix in="SourceAlpha" type="matrix" values="0 0 0 0 0 0 0 0 0 0 0 0 0 0 0 0 0 0 127 0" result="hardAlpha"/>
<feOffset dy="4"/>
<feGaussianBlur stdDeviation="2"/>
<feComposite in2="hardAlpha" operator="out"/>
<feColorMatrix type="matrix" values="0 0 0 0 0 0 0 0 0 0 0 0 0 0 0 0 0 0 0.25 0"/>
<feBlend mode="normal" in2="BackgroundImageFix" result="effect1_dropShadow"/>
<feBlend mode="normal" in="SourceGraphic" in2="effect1_dropShadow" result="shape"/>
</filter>
</defs>
</svg>
